<svg width="84" height="67" viewBox="0 0 84 67" fill="none" xmlns="http://www.w3.org/2000/svg">
<path d="M43.7414 8.05678L44.0488 7.55396" stroke="white" stroke-width="2.43472"/>
<path d="M15.6317 35.1488H10.6499L9.54465 38.0001H8.03891L12.476 26.7871H13.8056L18.2587 38.0001H16.737L15.6317 35.1488ZM15.1351 33.8513L13.1488 28.7094L11.1465 33.8513H15.1351ZM19.5122 29.9268H20.8737V31.0961C21.098 30.7224 21.4504 30.4127 21.931 30.167C22.4222 29.9214 22.9562 29.7986 23.5328 29.7986C24.3444 29.7986 25.0386 29.9802 25.6152 30.3432C26.1919 30.6957 26.6297 31.1869 26.9287 31.817C27.2384 32.447 27.3933 33.1625 27.3933 33.9634C27.3933 34.7644 27.2384 35.4799 26.9287 36.1099C26.6191 36.74 26.1705 37.2366 25.5832 37.5996C25.0065 37.952 24.3124 38.1282 23.5008 38.1282C22.9882 38.1282 22.4916 38.0161 22.0111 37.7919C21.5305 37.5569 21.1514 37.2526 20.8737 36.8788V40.9155H19.5122V29.9268ZM23.3726 36.9108C24.1736 36.9108 24.8143 36.6439 25.2949 36.1099C25.7754 35.5653 26.0157 34.8498 26.0157 33.9634C26.0157 33.0771 25.7754 32.3669 25.2949 31.833C24.8143 31.2883 24.1736 31.016 23.3726 31.016C22.5824 31.016 21.947 31.2883 21.4664 31.833C20.9966 32.3669 20.7616 33.0771 20.7616 33.9634C20.7616 34.8498 20.9966 35.5653 21.4664 36.1099C21.947 36.6439 22.5824 36.9108 23.3726 36.9108ZM29.1327 29.9268H30.4942V31.0961C30.7185 30.7224 31.0709 30.4127 31.5515 30.167C32.0427 29.9214 32.5766 29.7986 33.1533 29.7986C33.9649 29.7986 34.6591 29.9802 35.2357 30.3432C35.8124 30.6957 36.2502 31.1869 36.5492 31.817C36.8589 32.447 37.0138 33.1625 37.0138 33.9634C37.0138 34.7644 36.8589 35.4799 36.5492 36.1099C36.2396 36.74 35.791 37.2366 35.2037 37.5996C34.627 37.952 33.9329 38.1282 33.1213 38.1282C32.6087 38.1282 32.1121 38.0161 31.6316 37.7919C31.151 37.5569 30.7719 37.2526 30.4942 36.8788V40.9155H29.1327V29.9268ZM32.9931 36.9108C33.7941 36.9108 34.4348 36.6439 34.9154 36.1099C35.3959 35.5653 35.6362 34.8498 35.6362 33.9634C35.6362 33.0771 35.3959 32.3669 34.9154 31.833C34.4348 31.2883 33.7941 31.016 32.9931 31.016C32.2029 31.016 31.5675 31.2883 31.0869 31.833C30.6171 32.3669 30.3821 33.0771 30.3821 33.9634C30.3821 34.8498 30.6171 35.5653 31.0869 36.1099C31.5675 36.6439 32.2029 36.9108 32.9931 36.9108ZM43.4786 31.2563C43.1796 31.1282 42.8325 31.0641 42.4374 31.0641C41.754 31.0641 41.1933 31.3951 40.7555 32.0572C40.3283 32.7086 40.1147 33.6644 40.1147 34.9245V38.0001H38.7532V29.9268H40.1147V31.5607C40.3497 31.0481 40.7021 30.6262 41.172 30.2952C41.6418 29.9641 42.1277 29.7986 42.6296 29.7986C42.9821 29.7986 43.2917 29.8467 43.5587 29.9428L43.4786 31.2563ZM47.6152 29.7986C48.6083 29.7986 49.4092 30.0709 50.0179 30.6156C50.6266 31.1602 50.931 31.897 50.931 32.8261V38.0001H49.5854V36.6225C49.3505 37.0817 48.9874 37.4501 48.4962 37.7278C48.0156 37.9948 47.4817 38.1282 46.8943 38.1282C46.0934 38.1282 45.4366 37.9093 44.924 37.4715C44.4221 37.023 44.1712 36.4463 44.1712 35.7415C44.1712 34.9726 44.4862 34.3692 45.1163 33.9314C45.757 33.4936 46.7235 33.2106 48.0156 33.0824L49.5854 32.9062V32.746C49.5854 32.1907 49.4039 31.7529 49.0408 31.4325C48.6884 31.1015 48.2132 30.9359 47.6152 30.9359C47.0599 30.9359 46.6007 31.0908 46.2376 31.4005C45.8745 31.7102 45.6662 32.1373 45.6128 32.682L44.3474 32.4417C44.4649 31.6407 44.8226 31 45.4206 30.5195C46.0293 30.0389 46.7608 29.7986 47.6152 29.7986ZM47.1026 37.007C47.8821 37.007 48.4908 36.7667 48.9287 36.2861C49.3665 35.8056 49.5854 35.1595 49.5854 34.3479V33.9634L48.0156 34.1396C47.204 34.2251 46.5846 34.4066 46.1575 34.6843C45.741 34.9512 45.5328 35.2983 45.5328 35.7255C45.5328 36.0992 45.6769 36.4089 45.9653 36.6545C46.2643 36.8895 46.6434 37.007 47.1026 37.007ZM53.1448 29.9268H54.5064V38.0001H53.1448V29.9268ZM53.8176 28.405C53.5506 28.405 53.3263 28.3142 53.1448 28.1327C52.9633 27.9511 52.8725 27.7269 52.8725 27.4599C52.8725 27.1823 52.9633 26.9527 53.1448 26.7711C53.3263 26.5896 53.5506 26.4988 53.8176 26.4988C54.0952 26.4988 54.3248 26.5896 54.5064 26.7711C54.6986 26.9527 54.7947 27.1823 54.7947 27.4599C54.7947 27.7269 54.6986 27.9511 54.5064 28.1327C54.3248 28.3142 54.0952 28.405 53.8176 28.405ZM59.4186 38.1282C58.5215 38.1282 57.7847 37.8986 57.208 37.4395C56.642 36.9803 56.2576 36.4249 56.0547 35.7735L57.224 35.2609C57.5871 36.4036 58.3186 36.9749 59.4186 36.9749C59.8991 36.9749 60.2889 36.8574 60.5879 36.6225C60.8976 36.3769 61.0524 36.0832 61.0524 35.7415C61.0524 35.4532 60.9617 35.2182 60.7801 35.0367C60.6093 34.8551 60.3957 34.7163 60.1394 34.6202C59.8831 34.5241 59.5253 34.4173 59.0661 34.2998C58.4895 34.1503 58.0249 34.0061 57.6725 33.8673C57.3308 33.7178 57.0318 33.4936 56.7755 33.1945C56.5299 32.8849 56.4071 32.4684 56.4071 31.9451C56.4071 31.3044 56.6634 30.7864 57.176 30.3913C57.6886 29.9962 58.3774 29.7986 59.2424 29.7986C59.9578 29.7986 60.5932 29.9855 61.1486 30.3593C61.7039 30.7224 62.067 31.1976 62.2378 31.7849L61.1005 32.2815C60.9937 31.8757 60.7588 31.55 60.3957 31.3044C60.0433 31.0481 59.6482 30.9199 59.2103 30.9199C58.7511 30.9199 58.388 31.0107 58.1211 31.1922C57.8541 31.3631 57.7206 31.6087 57.7206 31.9291C57.7206 32.2495 57.8648 32.4897 58.1531 32.6499C58.4414 32.7994 58.8899 32.9436 59.4986 33.0824C60.0967 33.2319 60.5879 33.3868 60.9724 33.547C61.3568 33.6965 61.6878 33.9474 61.9655 34.2998C62.2432 34.6416 62.382 35.1114 62.382 35.7095C62.382 36.4249 62.1097 37.007 61.565 37.4555C61.0204 37.904 60.3049 38.1282 59.4186 38.1282ZM67.1221 29.7986C68.1152 29.7986 68.9162 30.0709 69.5249 30.6156C70.1336 31.1602 70.4379 31.897 70.4379 32.8261V38.0001H69.0924V36.6225C68.8574 37.0817 68.4943 37.4501 68.0031 37.7278C67.5226 37.9948 66.9886 38.1282 66.4013 38.1282C65.6003 38.1282 64.9436 37.9093 64.431 37.4715C63.9291 37.023 63.6781 36.4463 63.6781 35.7415C63.6781 34.9726 63.9931 34.3692 64.6232 33.9314C65.2639 33.4936 66.2304 33.2106 67.5226 33.0824L69.0924 32.9062V32.746C69.0924 32.1907 68.9108 31.7529 68.5477 31.4325C68.1953 31.1015 67.7201 30.9359 67.1221 30.9359C66.5668 30.9359 66.1076 31.0908 65.7445 31.4005C65.3814 31.7102 65.1732 32.1373 65.1198 32.682L63.8543 32.4417C63.9718 31.6407 64.3295 31 64.9276 30.5195C65.5363 30.0389 66.2678 29.7986 67.1221 29.7986ZM66.6095 37.007C67.3891 37.007 67.9978 36.7667 68.4356 36.2861C68.8734 35.8056 69.0924 35.1595 69.0924 34.3479V33.9634L67.5226 34.1396C66.7109 34.2251 66.0916 34.4066 65.6644 34.6843C65.2479 34.9512 65.0397 35.2983 65.0397 35.7255C65.0397 36.0992 65.1838 36.4089 65.4722 36.6545C65.7712 36.8895 66.1503 37.007 66.6095 37.007ZM72.6517 26.659H74.0133V38.0001H72.6517V26.659ZM4.59799 50.7871H8.85892C9.94818 50.7871 10.8185 51.0861 11.4699 51.6842C12.1214 52.2715 12.4471 53.0564 12.4471 54.0389C12.4471 55.0214 12.1214 55.8116 11.4699 56.4096C10.8185 56.997 9.94818 57.2907 8.85892 57.2907H6.05568V62.0001H4.59799V50.7871ZM8.81086 55.9771C9.47296 55.9771 9.99089 55.8063 10.3647 55.4645C10.7491 55.1228 10.9413 54.6476 10.9413 54.0389C10.9413 53.4302 10.7491 52.955 10.3647 52.6132C9.99089 52.2608 9.47296 52.0846 8.81086 52.0846H6.05568V55.9771H8.81086ZM18.6765 55.2563C18.3775 55.1282 18.0304 55.0641 17.6353 55.0641C16.9519 55.0641 16.3912 55.3951 15.9534 56.0572C15.5262 56.7086 15.3126 57.6644 15.3126 58.9245V62.0001H13.9511V53.9268H15.3126V55.5607C15.5476 55.0481 15.9 54.6262 16.3698 54.2952C16.8397 53.9641 17.3256 53.7986 17.8275 53.7986C18.1799 53.7986 18.4896 53.8467 18.7566 53.9428L18.6765 55.2563ZM23.3439 62.1282C22.5537 62.1282 21.8435 61.952 21.2134 61.5996C20.5941 61.2366 20.1082 60.74 19.7558 60.1099C19.414 59.4799 19.2432 58.7644 19.2432 57.9634C19.2432 57.1625 19.414 56.447 19.7558 55.817C20.1082 55.1869 20.5941 54.6957 21.2134 54.3432C21.8435 53.9802 22.5537 53.7986 23.3439 53.7986C24.1342 53.7986 24.839 53.9802 25.4584 54.3432C26.0884 54.6957 26.5797 55.1869 26.9321 55.817C27.2845 56.447 27.4607 57.1625 27.4607 57.9634C27.4607 58.7644 27.2845 59.4799 26.9321 60.1099C26.5797 60.74 26.0884 61.2366 25.4584 61.5996C24.839 61.952 24.1342 62.1282 23.3439 62.1282ZM23.3439 60.9108C24.1448 60.9108 24.7963 60.6385 25.2982 60.0939C25.8001 59.5386 26.051 58.8284 26.051 57.9634C26.051 57.0984 25.8001 56.3936 25.2982 55.849C24.7963 55.2937 24.1448 55.016 23.3439 55.016C22.543 55.016 21.8916 55.2937 21.3897 55.849C20.8877 56.3936 20.6368 57.0984 20.6368 57.9634C20.6368 58.8284 20.8877 59.5386 21.3897 60.0939C21.8916 60.6385 22.543 60.9108 23.3439 60.9108ZM33.3865 61.936C33.0341 62.0642 32.6123 62.1282 32.1211 62.1282C31.3949 62.1282 30.8129 61.92 30.375 61.5035C29.9479 61.0764 29.7343 60.4356 29.7343 59.5813V55.1282H28.2286V53.9268H29.7343V51.4759H31.0959V53.9268H33.2584V55.1282H31.0959V59.6294C31.0959 60.0458 31.2027 60.3609 31.4162 60.5745C31.6298 60.788 31.9182 60.8948 32.2812 60.8948C32.6764 60.8948 33.0128 60.8254 33.2904 60.6866L33.3865 61.936ZM42.0764 57.595C42.0764 57.8193 42.0658 58.0275 42.0444 58.2197H35.669C35.7118 59.0313 35.968 59.6881 36.4379 60.19C36.9185 60.6812 37.5218 60.9269 38.248 60.9269C38.8674 60.9269 39.38 60.788 39.7858 60.5104C40.1916 60.2327 40.4532 59.8429 40.5707 59.341L41.8522 59.6454C41.6493 60.4249 41.2275 61.0336 40.5867 61.4715C39.9567 61.9093 39.1771 62.1282 38.248 62.1282C37.4578 62.1282 36.7636 61.9467 36.1656 61.5836C35.5783 61.2099 35.1191 60.7079 34.788 60.0779C34.4676 59.4371 34.3075 58.7323 34.3075 57.9634C34.3075 57.1945 34.4623 56.4951 34.772 55.865C35.0924 55.2243 35.5462 54.7224 36.1336 54.3593C36.7316 53.9855 37.4257 53.7986 38.216 53.7986C38.9849 53.7986 39.663 53.9695 40.2503 54.3112C40.8377 54.6423 41.2862 55.1015 41.5959 55.6888C41.9163 56.2655 42.0764 56.9009 42.0764 57.595ZM40.6348 57.0824C40.5707 56.4417 40.3251 55.9237 39.8979 55.5286C39.4708 55.1335 38.9101 54.9359 38.216 54.9359C37.5859 54.9359 37.052 55.1282 36.6141 55.5126C36.1763 55.8864 35.888 56.4096 35.7491 57.0824H40.6348ZM47.3694 62.1282C46.5792 62.1282 45.8797 61.9574 45.271 61.6157C44.6623 61.2632 44.1924 60.772 43.8614 60.142C43.5303 59.5119 43.3648 58.7857 43.3648 57.9634C43.3648 57.1411 43.5303 56.415 43.8614 55.7849C44.1924 55.1549 44.6623 54.669 45.271 54.3272C45.8797 53.9748 46.5792 53.7986 47.3694 53.7986C48.3092 53.7986 49.0941 54.0389 49.7242 54.5195C50.3649 54.9893 50.76 55.6247 50.9095 56.4257L49.564 56.698C49.4785 56.2067 49.2383 55.8063 48.8431 55.4966C48.448 55.1762 47.9675 55.016 47.4015 55.016C46.6112 55.016 45.9758 55.2883 45.4953 55.833C45.0254 56.3669 44.7905 57.0771 44.7905 57.9634C44.7905 58.8498 45.0254 59.5653 45.4953 60.1099C45.9758 60.6439 46.6112 60.9108 47.4015 60.9108C47.9781 60.9108 48.4587 60.7613 48.8431 60.4623C49.2383 60.1633 49.4892 59.7468 49.596 59.2129L50.9255 59.4852C50.7547 60.3182 50.3489 60.9696 49.7081 61.4395C49.0781 61.8986 48.2985 62.1282 47.3694 62.1282ZM56.8042 61.936C56.4518 62.0642 56.03 62.1282 55.5388 62.1282C54.8126 62.1282 54.2306 61.92 53.7927 61.5035C53.3656 61.0764 53.152 60.4356 53.152 59.5813V55.1282H51.6463V53.9268H53.152V51.4759H54.5136V53.9268H56.6761V55.1282H54.5136V59.6294C54.5136 60.0458 54.6204 60.3609 54.8339 60.5745C55.0475 60.788 55.3359 60.8948 55.6989 60.8948C56.0941 60.8948 56.4305 60.8254 56.7081 60.6866L56.8042 61.936ZM58.3931 53.9268H59.7546V62.0001H58.3931V53.9268ZM59.0658 52.405C58.7989 52.405 58.5746 52.3142 58.3931 52.1327C58.2115 51.9511 58.1207 51.7269 58.1207 51.4599C58.1207 51.1823 58.2115 50.9527 58.3931 50.7711C58.5746 50.5896 58.7989 50.4988 59.0658 50.4988C59.3435 50.4988 59.5731 50.5896 59.7546 50.7711C59.9469 50.9527 60.043 51.1823 60.043 51.4599C60.043 51.7269 59.9469 51.9511 59.7546 52.1327C59.5731 52.3142 59.3435 52.405 59.0658 52.405ZM65.5959 62.1282C64.8056 62.1282 64.0955 61.952 63.4654 61.5996C62.846 61.2366 62.3601 60.74 62.0077 60.1099C61.666 59.4799 61.4951 58.7644 61.4951 57.9634C61.4951 57.1625 61.666 56.447 62.0077 55.817C62.3601 55.1869 62.846 54.6957 63.4654 54.3432C64.0955 53.9802 64.8056 53.7986 65.5959 53.7986C66.3861 53.7986 67.0909 53.9802 67.7103 54.3432C68.3404 54.6957 68.8316 55.1869 69.184 55.817C69.5364 56.447 69.7126 57.1625 69.7126 57.9634C69.7126 58.7644 69.5364 59.4799 69.184 60.1099C68.8316 60.74 68.3404 61.2366 67.7103 61.5996C67.0909 61.952 66.3861 62.1282 65.5959 62.1282ZM65.5959 60.9108C66.3968 60.9108 67.0482 60.6385 67.5501 60.0939C68.0521 59.5386 68.303 58.8284 68.303 57.9634C68.303 57.0984 68.0521 56.3936 67.5501 55.849C67.0482 55.2937 66.3968 55.016 65.5959 55.016C64.795 55.016 64.1435 55.2937 63.6416 55.849C63.1397 56.3936 62.8888 57.0984 62.8888 57.9634C62.8888 58.8284 63.1397 59.5386 63.6416 60.0939C64.1435 60.6385 64.795 60.9108 65.5959 60.9108ZM71.455 53.9268H72.8166V55.4485C73.1049 54.9466 73.4894 54.5461 73.9699 54.2471C74.4505 53.9481 74.9898 53.7986 75.5878 53.7986C76.4314 53.7986 77.1202 54.0603 77.6542 54.5835C78.1988 55.1068 78.4711 55.7956 78.4711 56.6499V62.0001H77.1096V56.9062C77.1096 56.3509 76.944 55.9024 76.613 55.5607C76.2819 55.2082 75.8388 55.032 75.2835 55.032C74.5252 55.032 73.9219 55.3417 73.4734 55.9611C73.0355 56.5698 72.8166 57.4028 72.8166 58.46V62.0001H71.455V53.9268Z" fill="#363B3D"/>
<path d="M50.5012 3.48498V10.8545C50.5012 13.5346 49.0049 16.2629 46.1765 18.7347C44.8687 19.8778 43.4321 20.8647 41.8958 21.6753C41.8511 21.699 41.8012 21.7114 41.7506 21.7114C41.7 21.7114 41.6501 21.699 41.6054 21.6753C40.0691 20.8647 38.6326 19.8778 37.3247 18.7347C34.4963 16.2589 33 13.5346 33 10.8545V3.48498C32.9999 3.41833 33.0202 3.35324 33.0581 3.29846C33.0961 3.24367 33.1499 3.20181 33.2123 3.17851L41.6374 0.0195898C41.7113 -0.00652993 41.7919 -0.00652993 41.8658 0.0195898L50.2889 3.17851C50.3514 3.20181 50.4052 3.24367 50.4431 3.29846C50.4811 3.35324 50.5014 3.41833 50.5012 3.48498Z" fill="#363B3D"/>
<path d="M43.6046 6.64999C43.3796 6.49016 43.1105 6.4043 42.8344 6.4043C42.5584 6.4043 42.2893 6.49016 42.0643 6.64999L40.4618 7.78175V6.88034C40.462 6.84739 40.4557 6.81471 40.4432 6.78421C40.4308 6.75371 40.4123 6.726 40.389 6.7027C40.3657 6.67939 40.338 6.66096 40.3075 6.64847C40.277 6.63598 40.2443 6.62969 40.2114 6.62996H39.3881C39.3553 6.62969 39.3228 6.63592 39.2924 6.64829C39.262 6.66065 39.2344 6.6789 39.2112 6.70199C39.1879 6.72509 39.1694 6.75256 39.1568 6.78282C39.1442 6.81309 39.1377 6.84555 39.1377 6.87834V13.3765C39.1393 13.4418 39.1663 13.504 39.2131 13.5496C39.2599 13.5953 39.3227 13.6209 39.3881 13.6208H40.2114C40.2774 13.6208 40.3408 13.5947 40.3877 13.5482C40.4346 13.5017 40.4612 13.4385 40.4618 13.3724V9.41429L42.8334 7.73167L44.454 8.88747C44.4804 8.90668 44.5105 8.92043 44.5423 8.92791C44.5741 8.93539 44.6072 8.93646 44.6394 8.93105C44.6717 8.92565 44.7025 8.91387 44.7302 8.89642C44.7578 8.87896 44.7818 8.85617 44.8005 8.82938L45.2833 8.15233C45.319 8.0984 45.3324 8.03264 45.3204 7.96904C45.3084 7.90544 45.2721 7.84902 45.2192 7.81179L43.6046 6.64999Z" fill="white"/>
</svg>
